#!OML:ASF E:\motion texture\Top Level 1\Subject 1\Session 1\male.ASF
:FULLY-SPECIFIED
:DEGREES
688
root -50.2863 17.6489 1.40711 867.148 -76.6526 -862.916
lowerback -6.18264 1.87631 9.59554
upperback -7.31613 1.85125 4.04411
thorax -4.0273 0.391604 -1.06505
lowerneck 2.07193 -1.91602 -6.92556
upperneck -31.9974 -1.90339 12.7881
head -10.2254 -2.06089 6.1763
rclavicle 1.19271e-015 6.36111e-014
rhumerus 81.801 -17.8283 -50.9923
rradius 75.5421
rwrist 36.5021
rhand -35.6409 -27.0769
rfingers 7.12502
rthumb -8.76328 -416.875
lclavicle 1.19271e-015 6.36111e-014
lhumerus 43.1979 -11.7555 56.678
lradius 94.8168
lwrist -2.90833
lhand -20.1226 23.4656
lfingers 7.12502
lthumb 6.22142 53.3542
rfemur 5.30701 3.21252 29.0421
rtibia 36.1846
rfoot -6.74101 4.92501
rtoes -4.68113
lfemur -31.0051 1.87396 -5.42641
ltibia 23.601
lfoot -4.83451 7.72004
ltoes 0.973857
689
root -50.471 17.6432 1.39617 868.91 -77.4145 -865.059
lowerback -6.23751 1.68365 8.60099
upperback -7.27806 1.63728 3.82107
thorax -3.97763 0.338876 -0.76055
lowerneck 1.81398 -2.06051 -6.73054
upperneck -31.5669 -2.10959 12.6107
head -9.9948 -2.14205 6.04415
rclavicle -2.98177e-015 1.98785e-014
rhumerus 81.6031 -18.214 -51.5245
rradius 75.9053
rwrist 36.7442
rhand -35.6409 -27.0769
rfingers 7.12502
rthumb -8.76328 -416.875
lclavicle -2.98177e-015 1.98785e-014
lhumerus 43.1979 -11.7555 56.678
lradius 94.8168
lwrist -2.90833
lhand -20.1226 23.4656
lfingers 7.12502
lthumb 6.22142 53.3542
rfemur 5.23146 2.68278 27.763
rtibia 37.4859
rfoot -4.79389 5.15209
rtoes -3.21315
lfemur -31.0051 1.87396 -5.42641
ltibia 23.601
lfoot -4.83451 7.72004
ltoes 0.973857
690
root -50.6443 17.641 1.3914 869.873 -78.0568 -866.477
lowerback -6.04612 1.49657 7.89381
upperback -7.28947 1.4494 3.6468
thorax -4.1126 0.27723 -0.563142
lowerneck 1.9184 -2.08088 -6.59806
upperneck -31.4361 -2.16779 12.3878
head -9.96763 -2.15358 5.93374
rclavicle 9.93923e-016 -1.90833e-014
rhumerus 80.9267 -18.4044 -52.0262
rradius 77.0458
rwrist 36.9718
rhand -35.6409 -27.0769
rfingers 7.12502
rthumb -8.76328 -416.875
lclavicle 9.93923e-016 -1.90833e-014
lhumerus 43.1979 -11.7555 56.678
lradius 94.8168
lwrist -2.90833
lhand -20.1226 23.4656
lfingers 7.12502
lthumb 6.22142 53.3542
rfemur 5.19416 2.24073 26.8009
rtibia 38.7898
rfoot -2.55756 5.18003
rtoes -2.37944
lfemur -31.0051 1.87396 -5.42641
ltibia 23.601
lfoot -4.83451 7.72004
ltoes 0.973857
691
root -50.8051 17.6395 1.38335 870.406 -78.6353 -867.482
lowerback -5.7994 1.2889 7.21903
upperback -7.20903 1.23341 3.53492
thorax -4.18155 0.207316 -0.318278
lowerneck 2.62297 -1.71997 -7.85539
upperneck -32.1113 -1.44396 13.9552
head -10.3904 -1.87306 6.78629
rclavicle 1.63003e-014 -1.59028e-014
rhumerus 80.5518 -18.723 -52.4569
rradius 77.2732
rwrist 37.1477
rhand -35.6409 -27.0769
rfingers 7.12502
rthumb -8.76328 -416.875
lclavicle 1.63003e-014 -1.59028e-014
lhumerus 43.1979 -11.7555 56.678
lradius 94.8168
lwrist -2.90833
lhand -20.1226 23.4656
lfingers 7.12502
lthumb 6.22142 53.3542
rfemur 5.03195 1.85466 26.0492
rtibia 40.2074
rfoot -0.103259 4.99715
rtoes -2.1639
lfemur -31.0051 1.87396 -5.42641
ltibia 23.601
lfoot -4.83451 7.72004
ltoes 0.973857
692
root -50.9802 17.6362 1.38677 871.94 -79.3336 -869.537
lowerback -5.76353 1.05519 6.49068
upperback -7.02998 0.957315 3.33613
thorax -4.02623 0.117065 -0.132267
lowerneck 4.39786 -0.76688 -10.5441
upperneck -33.9134 0.247316 17.05
head -11.6557 -1.19609 8.67244
rclavicle 6.55989e-015 4.05521e-014
rhumerus 79.866 -18.9436 -53.026
rradius 78.537
rwrist 37.406
rhand -35.6409 -27.0769
rfingers 7.12502
rthumb -8.76328 -416.875
lclavicle 6.55989e-015 4.05521e-014
lhumerus 43.1979 -11.7555 56.678
lradius 94.8168
lwrist -2.90833
lhand -20.1226 23.4656
lfingers 7.12502
lthumb 6.22142 53.3542
rfemur 4.9543 1.20635 24.8685
rtibia 41.596
rfoot 2.484 5.02746
rtoes -2.1692
lfemur -31.0051 1.87396 -5.42641
ltibia 23.601
lfoot -4.83451 7.72004
ltoes 0.973857
693
root -51.1283 17.5807 1.35689 877.181 -78.4772 -873.45
lowerback -7.10142 1.46853 5.74962
upperback -7.44277 1.38764 3.33783
thorax -3.70438 0.347149 0.313824
lowerneck 1.62726 -2.14991 -6.61455
upperneck -30.8145 -2.19659 12.5739
head -9.66959 -2.16226 5.94983
rclavicle -1.82882e-014 5.56597e-015
rhumerus 78.7587 -19.0977 -53.5232
rradius 80.1289
rwrist 37.6739
rhand -35.6409 -27.0769
rfingers 7.12502
rthumb -8.76328 -416.875
lclavicle -1.82882e-014 5.56597e-015
lhumerus 43.1979 -11.7555 56.678
lradius 94.8168
lwrist -2.90833
lhand -20.1226 23.4656
lfingers 7.12502
lthumb 6.22142 53.3542
rfemur 2.05942 2.26952 24.3323
rtibia 44.0963
rfoot 4.87177 5.05881
rtoes -1.65896
lfemur -31.0051 1.87396 -5.42641
ltibia 23.601
lfoot -4.83451 7.72004
ltoes 0.973857
694
root -51.2767 17.5842 1.35877 876.158 -78.8043 -872.693
lowerback -7.06009 1.29169 5.72043
upperback -7.34096 1.16197 3.29009
thorax -3.62675 0.242303 0.269797
lowerneck 1.62099 -2.10045 -6.63331
upperneck -30.7666 -2.1012 12.6892
head -9.65813 -2.12758 5.98627
rclavicle 5.76476e-015 2.22639e-014
rhumerus 77.7682 -19.2935 -54.0516
rradius 81.3499
rwrist 38.0849
rhand -35.6409 -27.0769
rfingers 7.12502
rthumb -8.76328 -416.875
lclavicle 5.76476e-015 2.22639e-014
lhumerus 43.1979 -11.7555 56.678
lradius 94.8168
lwrist -2.90833
lhand -20.1226 23.4656
lfingers 7.12502
lthumb 6.22142 53.3542
rfemur 1.42216 1.96754 24.2173
rtibia 45.8305
rfoot 7.43142 4.63462
rtoes -0.311699
lfemur -31.0051 1.87396 -5.42641
ltibia 23.601
lfoot -4.83451 7.72004
ltoes 0.973857
695
root -51.4226 17.5917 1.36318 875.658 -78.9676 -872.537
lowerback -6.92788 1.17007 5.68632
upperback -7.17717 1.01864 3.24484
thorax -3.53154 0.181889 0.232975
lowerneck 1.27763 -2.13731 -6.47681
upperneck -30.3737 -2.16213 12.5332
head -9.44801 -2.14231 5.8648
rclavicle -2.68359e-014 0
rhumerus 76.5402 -19.469 -54.577
rradius 83.274
rwrist 39.0655
rhand -35.6409 -27.0769
rfingers 7.12502
rthumb -8.76328 -416.875
lclavicle -2.68359e-014 0
lhumerus 43.1979 -11.7555 56.678
lradius 94.8168
lwrist -2.90833
lhand -20.1226 23.4656
lfingers 7.12502
lthumb 6.22142 53.3542
rfemur 0.767547 1.80376 24.065
rtibia 47.6414
rfoot 10.135 4.07182
rtoes 1.41538
lfemur -31.0051 1.87396 -5.42641
ltibia 23.601
lfoot -4.83451 7.72004
ltoes 0.973857
696
root -51.5767 17.6047 1.36731 876.57 -78.8666 -873.982
lowerback -5.7894 0.997358 6.64678
upperback -7.65802 0.868148 2.36457
thorax -4.66833 0.0035169 -1.22514
lowerneck 1.42741 -2.0391 -5.94324
upperneck -29.4122 -1.82122 13.1054
head -9.15936 -2.07112 5.89255
rclavicle 1.04362e-014 3.10104e-014
rhumerus 74.165 -19.0561 -56.2647
rradius 85.2407
rwrist 39.6671
rhand -35.6409 -27.0769
rfingers 7.12502
rthumb -8.76328 -416.875
lclavicle 1.04362e-014 3.10104e-014
lhumerus 43.1979 -11.7555 56.678
lradius 94.8168
lwrist -2.90833
lhand -20.1226 23.4656
lfingers 7.12502
lthumb 6.22142 53.3542
rfemur 0.275733 1.95121 23.738
rtibia 49.404
rfoot 12.9104 3.55685
rtoes 3.32698
lfemur -31.0051 1.87396 -5.42641
ltibia 23.601
lfoot -4.83451 7.72004
ltoes 0.973857
697
root -51.7227 17.6202 1.3732 877.33 -78.6672 -875.213
lowerback -5.61161 0.980018 6.59042
upperback -7.41073 0.867923 2.30234
thorax -4.50373 0.0223707 -1.26256
lowerneck 1.11515 -2.0249 -5.95055
upperneck -29.0133 -1.8066 13.0698
head -8.9596 -2.04331 5.84332
rclavicle -3.77691e-015 -2.74323e-014
rhumerus 72.61 -19.2552 -56.9176
rradius 87.612
rwrist 39.2133
rhand -35.6409 -27.0769
rfingers 7.12502
rthumb -8.76328 -416.875
lclavicle -3.77691e-015 -2.74323e-014
lhumerus 43.1979 -11.7555 56.678
lradius 94.8168
lwrist -2.90833
lhand -20.1226 23.4656
lfingers 7.12502
lthumb 6.22142 53.3542
rfemur -0.375539 2.13978 23.5287
rtibia 51.1865
rfoot 15.7658 2.83217
rtoes 5.77513
lfemur -31.0051 1.87396 -5.42641
ltibia 23.601
lfoot -4.83451 7.72004
ltoes 0.973857
